<svg fill="none" height="32" viewBox="0 0 32 32" width="32" xmlns="http://www.w3.org/2000/svg">
  <path
    d="M24.5195 12.9427C24.4454 13.4532 24.1088 14.1466 23.7227 14.7495C23.2355 15.5103 22.4623 16.0431 21.5775 16.2282L17.6798 17.0432C17.0534 17.1742 16.4853 17.5021 16.0588 17.9788L13.5032 20.8355C13.0228 21.3724 12.6871 21.2443 12.6871 20.5243C12.6813 20.551 11.4188 23.807 14.7647 25.7369C16.0503 26.4785 17.901 26.212 19.1866 25.4705L25.9984 21.5414C28.546 20.072 30.3446 17.5862 30.9425 14.7087C30.9661 14.5949 30.9844 14.4806 31.0041 14.3665L24.5195 12.9427Z"
    fill="url(#paint0_linear_1005_61)"/>
  <path
    d="M22.7529 9.01792C24.0385 9.75947 24.5638 10.8635 24.5638 12.3466C24.5638 12.5479 24.548 12.7468 24.5195 12.9427L27.2642 14.1217L31.0041 14.3665C31.483 11.595 30.5445 8.7422 28.8621 6.47463C27.596 4.76819 25.9668 3.28732 24.0082 2.15756C22.4171 1.23984 20.7638 0.635188 19.1026 0.303406L17.2362 2.72041L16.6466 5.49577L22.7529 9.01792Z"
    fill="url(#paint1_linear_1005_61)"/>
  <path
    d="M0.783582 11.0518C0.782883 11.054 0.784817 11.0546 0.785544 11.0524C0.929568 10.6205 1.11016 10.1385 1.33562 9.62369C2.51333 6.9343 4.78284 5.14062 7.5749 4.22608C10.3669 3.31156 13.4155 3.63212 15.9601 5.09988L16.6465 5.49578L19.1025 0.303412C11.2909 -1.25676 3.30726 3.33253 0.793513 11.0217C0.792312 11.0254 0.787942 11.0382 0.783582 11.0518Z"
    fill="url(#paint2_linear_1005_61)"/>
  <path
    d="M18.9198 25.4705C17.6342 26.212 16.0503 26.212 14.7647 25.4705C14.5902 25.3698 14.4256 25.2566 14.2701 25.1341L12.009 26.6886L10.0603 29.8377C12.2233 31.6377 15.0321 32.2164 17.8389 31.8946C19.9512 31.6524 22.0495 30.9832 24.0081 29.8535C25.5992 28.9358 26.95 27.8076 28.0682 26.5362L26.9062 23.7129L25.0262 21.9483L18.9198 25.4705Z"
    fill="url(#paint3_linear_1005_61)"/>
  <path
    d="M14.2701 25.1341C13.2795 24.3539 12.6871 23.1572 12.6871 21.8754V21.7476V11.0724C12.6871 10.4687 12.865 10.3661 13.3883 10.6679C12.5823 10.203 10.7202 8.60698 8.42113 9.93311C7.13553 10.6747 6.07686 12.3115 6.07686 13.7946V21.6528C6.07686 24.5917 7.59902 27.6572 9.79443 29.6132C9.88127 29.6906 9.97118 29.7635 10.0603 29.8377L14.2701 25.1341Z"
    fill="url(#paint4_linear_1005_61)"/>
  <path
    d="M27.9104 5.31238C27.9089 5.31068 27.9074 5.31205 27.9089 5.31376C28.2113 5.65436 28.5388 6.05158 28.8724 6.50407C30.6148 8.86772 31.2659 11.8614 30.6626 14.7344C30.0593 17.6073 28.2572 20.0846 25.7125 21.5524L25.0262 21.9483L28.0682 26.5362C33.3264 20.5577 33.34 11.3555 27.9316 5.33602C27.929 5.33314 27.92 5.32294 27.9104 5.31238Z"
    fill="url(#paint5_linear_1005_61)"/>
  <path
    d="M6.34355 13.7947C6.34354 12.3116 7.13551 10.9411 8.42113 10.1996C8.59564 10.0989 8.77601 10.0132 8.96002 9.93982L8.74304 7.20633L7.21861 4.07892C4.57671 5.05035 2.4397 7.05796 1.31528 9.64739C0.469097 11.596 9.792e-06 13.7461 0 16.0056C0 17.841 0.302549 19.5738 0.845532 21.177L3.87391 21.5833L6.34355 20.839V13.7947Z"
    fill="url(#paint6_linear_1005_61)"/>
  <path
    d="M8.96003 9.93982C10.1316 9.47294 11.4652 9.5587 12.5763 10.1996L12.6871 10.2635L21.5825 15.3944C22.2065 15.7543 22.1498 16.1085 21.4445 16.256L21.9577 16.1487C22.6329 16.0075 23.2498 15.6624 23.7215 15.1595C24.5327 14.295 24.8304 13.2518 24.8304 12.3466C24.8304 10.8635 24.0385 9.49305 22.7529 8.75151L15.941 4.82239C13.3935 3.35298 10.3394 3.03965 7.5461 3.96113C7.4356 3.99758 7.32744 4.03891 7.21863 4.07892L8.96003 9.93982Z"
    fill="url(#paint7_linear_1005_61)"/>
  <path
    d="M19.3222 31.6524C19.3244 31.6519 19.324 31.6499 19.3218 31.6504C18.8753 31.7418 18.3673 31.8265 17.8082 31.8888C14.8881 32.2146 11.9675 31.281 9.77873 29.3226C7.58996 27.3642 6.34356 24.5663 6.34357 21.6308L6.34356 20.839L0.845551 21.177C3.3989 28.7157 11.3689 33.3285 19.2912 31.6589C19.2949 31.6581 19.3083 31.6554 19.3222 31.6524Z"
    fill="url(#paint8_linear_1005_61)"/>
  <defs>
    <linearGradient gradientUnits="userSpaceOnUse" id="paint0_linear_1005_61" x1="20.0601" x2="23.2076" y1="23.7699"
                    y2="12.8068">
      <stop stop-color="#1724C9"/>
      <stop offset="1" stop-color="#1C64F2"/>
    </linearGradient>
    <linearGradient gradientUnits="userSpaceOnUse" id="paint1_linear_1005_61" x1="27.3094" x2="19.0298" y1="10.4003"
                    y2="2.1498">
      <stop stop-color="#1C64F2"/>
      <stop offset="1" stop-color="#0092FF"/>
    </linearGradient>
    <linearGradient gradientUnits="userSpaceOnUse" id="paint2_linear_1005_61" x1="16.1644" x2="3.6743" y1="5.02115"
                    y2="5.8104">
      <stop stop-color="#0092FF"/>
      <stop offset="1" stop-color="#45B2FF"/>
    </linearGradient>
    <linearGradient gradientUnits="userSpaceOnUse" id="paint3_linear_1005_61" x1="15.3198" x2="26.5366" y1="28.6627"
                    y2="25.6359">
      <stop stop-color="#1C64F2"/>
      <stop offset="1" stop-color="#0092FF"/>
    </linearGradient>
    <linearGradient gradientUnits="userSpaceOnUse" id="paint4_linear_1005_61" x1="7.26877" x2="15.2324" y1="15.6827"
                    y2="23.9347">
      <stop stop-color="#1724C9"/>
      <stop offset="1" stop-color="#1C64F2"/>
    </linearGradient>
    <linearGradient gradientUnits="userSpaceOnUse" id="paint5_linear_1005_61" x1="25.4504" x2="31.0069" y1="21.6357"
                    y2="10.4345">
      <stop stop-color="#0092FF"/>
      <stop offset="1" stop-color="#45B2FF"/>
    </linearGradient>
    <linearGradient gradientUnits="userSpaceOnUse" id="paint6_linear_1005_61" x1="5.36387" x2="2.39054" y1="9.13098"
                    y2="20.3066">
      <stop stop-color="#1C64F2"/>
      <stop offset="1" stop-color="#0092FF"/>
    </linearGradient>
    <linearGradient gradientUnits="userSpaceOnUse" id="paint7_linear_1005_61" x1="20.5431" x2="9.67768" y1="8.59942"
                    y2="11.3047">
      <stop stop-color="#1724C9"/>
      <stop offset="1" stop-color="#1C64F2"/>
    </linearGradient>
    <linearGradient gradientUnits="userSpaceOnUse" id="paint8_linear_1005_61" x1="6.40676" x2="13.3325" y1="21.3567"
                    y2="31.7746">
      <stop stop-color="#0092FF"/>
      <stop offset="1" stop-color="#45B2FF"/>
    </linearGradient>
  </defs>
</svg>
